<?xml version="1.0" encoding="UTF-8"?>
<svg id="Layer_1" xmlns="http://www.w3.org/2000/svg" width="404.95" height="445.04" version="1.1" viewBox="0 0 404.95 445.04">
  <!-- Generator: Adobe Illustrator 29.8.11, SVG Export Plug-In . SVG Version: 2.1.1 Build 11)  -->
  <path d="M397.8,298.02c.1,19.57-13.54,43.78-30.54,53.66l-132.52,77.77c-16.9,9.88-44.67,10.08-61.67.4l-133.61-75.9c-17-9.68-31.13-33.6-31.23-53.27l-1.09-153.67c-.1-19.57,13.54-43.78,30.44-53.66L170.21,15.58c16.9-9.88,44.67-10.08,61.67-.4l133.61,75.9c17,9.68,31.13,33.6,31.23,53.27l1.09,153.67Z" fill="#ff4f00"/>
  <path d="M164.97,187.39h175.51v-49.61h-175.12c-25,0-45.76,8.6-61.67,25.6-38.15,40.91-39.23,143.89-39.23,143.89h274.63v-93.19h-49.31v43.58H117.14c1.09-16.21,8.5-45.26,22.53-60.28,6.33-6.82,14.43-9.98,25.3-9.98Z" fill="#fff"/>
</svg>